DataType=double
version=3
OpenSimVersion=4.5-2024-01-10-34fd6af
endheader
time	ground_force_1_vx	ground_force_1_vy	ground_force_1_vz	ground_force_1_px	ground_force_1_py	ground_force_1_pz	ground_moment_1_mx	ground_moment_1_my	ground_moment_1_mz	ground_force_2_vx	ground_force_2_vy	ground_force_2_vz	ground_force_2_px	ground_force_2_py	ground_force_2_pz	ground_moment_2_mx	ground_moment_2_my	ground_moment_2_mz
0	-2.114373866	756.0354538	67.67277028	0.819550251	0	0.240496534	-91.66126376	-14.68775843	192.8709178	1.90E-22	-7.15E-21	8.13E-22	0.820157636	0	0.721691933	-2.30E-22	-9.60E-23	1.32E-21
0.01	-0.006277494	759.6796556	68.76239383	0.819550251	0	0.240496534	-91.84297451	-14.32158749	188.9525321	4.12E-26	-1.57E-24	1.78E-25	0.820157636	0	0.721691933	-5.03E-26	-2.14E-26	2.88E-25
0.02	1.836162551	761.381436	69.78124153	0.819550251	0	0.240496534	-91.74113659	-13.96483692	184.5971776	8.48E-30	-3.41E-28	3.94E-29	0.820157636	0	0.721691933	-1.11E-29	-4.56E-30	6.31E-29
0.03	3.534113363	761.1683715	70.777617	0.819550251	0	0.240496534	-91.3643036	-13.61620645	179.8177363	2.02E-33	-7.50E-32	8.55E-33	0.820157636	0	0.721691933	-2.45E-33	-1.02E-33	1.38E-32
0.04	5.202371358	759.1568956	71.76601037	0.819550251	0	0.240496534	-90.74142027	-13.26696775	174.6544349	4.26E-37	-1.65E-35	1.90E-36	0.820157636	0	0.721691933	-5.32E-37	-2.13E-37	3.03E-36
0.05	6.879583933	755.6247952	72.63372708	0.819550251	0	0.240496534	-89.91983447	-12.88990538	169.181049	9.97E-41	-3.61E-39	4.12E-40	0.820157636	0	0.721691933	-1.16E-40	-5.06E-41	6.64E-40
0.06	8.682977744	750.8786865	73.34022833	0.819550251	0	0.240496534	-88.95705859	-12.46789724	163.4633214	2.19E-44	-7.84E-43	8.96E-44	0.820157636	0	0.721691933	-2.55E-44	-1.02E-44	1.45E-43
0.07	10.57895951	745.2921782	73.80235954	0.819550251	0	0.240496534	-87.91148711	-11.97855652	157.6071969	4.53E-48	-1.73E-46	1.97E-47	0.820157636	0	0.721691933	-5.59E-48	-2.14E-48	3.18E-47
0.08	12.63405504	739.2070399	73.94930502	0.819550251	0	0.240496534	-86.83657766	-11.41041201	151.6752306	9.76E-52	-3.78E-50	4.32E-51	0.820157636	0	0.721691933	-1.22E-51	-5.17E-52	6.97E-51
0.09	14.77812139	732.9448482	73.82525488	0.819550251	0	0.240496534	-85.77302188	-10.76210381	145.7439355	2.05E-55	-8.30E-54	9.47E-55	0.820157636	0	0.721691933	-2.66E-55	-1.15E-55	1.53E-54
0.1	16.99846989	726.7586553	73.43027811	0.819550251	0	0.240496534	-84.75179323	-10.03422527	139.865951	4.92E-59	-1.81E-57	2.08E-58	0.820157636	0	0.721691933	-5.90E-59	-2.44E-59	3.35E-58
0.11	19.25445839	720.8561738	72.82477728	0.819550251	0	0.240496534	-83.79321694	-9.247195301	134.0820311	1.04E-62	-3.97E-61	4.57E-62	0.820157636	0	0.721691933	-1.28E-62	-5.13E-63	7.32E-62
0.12	21.50232652	715.4225254	72.06895176	0.819550251	0	0.240496534	-82.91155375	-8.42042214	128.4512645	2.13E-66	-8.75E-65	9.99E-66	0.820157636	0	0.721691933	-2.83E-66	-1.13E-66	1.60E-65
0.13	23.76834363	710.6457218	71.15656328	0.819550251	0	0.240496534	-82.12132089	-7.568396015	122.9809232	4.94E-70	-1.90E-68	2.19E-69	0.820157636	0	0.721691933	-6.17E-70	-2.72E-70	3.51E-69
0.14	26.04182453	706.7205174	70.17172289	0.819550251	0	0.240496534	-81.43019633	-6.705076551	117.7300213	-1.51E-71	-7.26E-70	-7.60E-71	0.820157636	0	0.721691933	-4.61E-71	7.29E-72	-5.15E-70
0.15	28.37955376	703.8069909	69.14668274	0.819550251	0	0.240496534	-80.84143213	-5.833823608	112.7117076	-6.32E-68	-3.27E-66	-3.44E-67	0.820157636	0	0.721691933	-2.06E-67	3.33E-68	-2.35E-66
0.16	30.79850074	702.0092	68.12957089	0.819550251	0	0.240496534	-80.34447868	-4.962036711	107.9554322	-3.23E-64	-1.49E-62	-1.57E-63	0.820157636	0	0.721691933	-9.38E-64	1.60E-64	-1.07E-62
0.17	33.32073238	701.3676741	67.2212799	0.819550251	0	0.240496534	-79.91556954	-4.098553155	103.4914257	-1.61E-60	-6.86E-59	-7.22E-60	0.820157636	0	0.721691933	-4.33E-60	6.95E-61	-4.91E-59
0.18	35.94017451	701.8547105	66.44471802	0.819550251	0	0.240496534	-79.52460418	-3.259333318	99.32018057	-6.53E-57	-3.13E-55	-3.30E-56	0.820157636	0	0.721691933	-1.98E-56	3.07E-57	-2.24E-55
0.19	38.65366164	703.4001718	65.90067152	0.819550251	0	0.240496534	-79.13726977	-2.460831841	95.46780428	-2.90E-53	-1.41E-51	-1.51E-52	0.820157636	0	0.721691933	-8.79E-53	1.51E-53	-1.02E-51
0.2	41.45036667	705.8673583	65.63482727	0.819550251	0	0.240496534	-78.72134199	-1.711662056	91.91967622	-1.54E-49	-6.49E-48	-6.95E-49	0.820157636	0	0.721691933	-4.06E-49	6.82E-50	-4.67E-48
